<?xml version="1.0" encoding="UTF-8"?>
<!--Generator: Apple Native CoreSVG 341-->
<!DOCTYPE svg
PUBLIC "-//W3C//DTD SVG 1.1//EN"
       "http://www.w3.org/Graphics/SVG/1.1/DTD/svg11.dtd">
<svg version="1.1" xmlns="http://www.w3.org/2000/svg" xmlns:xlink="http://www.w3.org/1999/xlink" viewBox="0 0 22.1631 17.9902">
 <g>
  <rect height="17.9902" opacity="0" width="22.1631" x="0" y="0"/>
  <path d="M3.06363 17.87L19.3997 17.87C21.146 17.87 22.1631 16.8486 22.1631 14.8375L22.1631 4.81041C22.1631 2.79927 21.1356 1.78824 19.0995 1.78824L9.7262 1.78824C9.06497 1.78824 8.67044 1.62645 8.18427 1.21694L7.58444 0.722726C6.93858 0.174245 6.43652 0 5.47895 0L2.69191 0C0.987671 0 3.5271e-05 0.969038 3.5271e-05 2.93607L3.5271e-05 14.8375C3.5271e-05 16.8528 1.02756 17.87 3.06363 17.87ZM3.08855 16.2889C2.11327 16.2889 1.57073 15.7774 1.57073 14.7608L1.57073 3.01907C1.57073 2.05475 2.07972 1.56646 3.02121 1.56646L5.07506 1.56646C5.72574 1.56646 6.11605 1.73036 6.60855 2.1462L7.21049 2.64041C7.83546 3.168 8.36052 3.35892 9.32232 3.35892L19.0746 3.35892C20.0414 3.35892 20.5924 3.88077 20.5924 4.89745L20.5924 14.7711C20.5924 15.7774 20.0414 16.2889 19.0746 16.2889Z" fill="black" fill-opacity="0.85"/>
  <path d="M11.0868 14.2389C11.468 14.2389 11.7954 13.9219 11.7954 13.551L11.7954 8.56579L11.7312 6.71494C11.7209 6.31508 11.4038 6.10155 11.0868 6.10155C10.7676 6.10155 10.4609 6.31508 10.4505 6.71494L10.3884 8.56579L10.3884 13.551C10.3884 13.9219 10.7034 14.2389 11.0868 14.2389ZM11.0868 5.29508C10.9127 5.29508 10.7572 5.35107 10.5749 5.523L7.65046 8.344C7.51991 8.47664 7.44323 8.62788 7.44323 8.81229C7.44323 9.17285 7.70642 9.43816 8.07524 9.43816C8.25139 9.43816 8.43791 9.36972 8.56844 9.22884L9.92006 7.78196L11.0868 6.54491L11.0868 6.54491L12.2596 7.78196L13.6133 9.22884C13.7335 9.36972 13.92 9.43816 14.0858 9.43816C14.4629 9.43816 14.7385 9.17285 14.7385 8.81229C14.7385 8.62788 14.6618 8.47664 14.5313 8.344L11.5986 5.523C11.4245 5.35107 11.2712 5.29508 11.0868 5.29508Z" fill="black" fill-opacity="0.85"/>
 </g>
</svg>
